# xmcd CD database file
# 
# Track frame offsets:
# 	150
# 	13064
# 	26267
# 	38185
# 	51097
# 	63125
# 	76269
# 	90963
# 	103776
# 	115279
# 	128532
# 	140240
# 	152603
# 	165551
# 	177954
# 	190753
# 	204171
# 	215934
# 
# Disc length: 3036 seconds
# 
# Submitted via: Nero 5.5.3.2
# 
# Revision: 0
# Processed by: cddbd v1.4PL0 Copyright (c) Steve Scherf et al.
#
DISCID=e80bda12
DTITLE=Big Bill Broonzy - The Blues...
DYEAR=1900
DGENRE=
TTITLE0=Just A Dream, (2)
TTITLE1=It's A Low Down Dirty Shame
TTITLE2=Trucking Little Woman
TTITLE3=C and A Bues
TTITLE4=Pneumoniae Blues
TTITLE5=Detroit Special
TTITLE6=Southern Flood Blues
TTITLE7=It's Your Time Now
TTITLE8=Baby I Done Got Wise
TTITLE9=Woodie Woodie
TTITLE10=Too Many Drivers
TTITLE11=Please Be My So and So
TTITLE12=When I Been Drinking
TTITLE13=Jivin' Mr Fuller Blues
TTITLE14=What Is That She Gots ?
TTITLE15=Just A Dream (On My Mind)
TTITLE16=She Never
TTITLE17=Ride Alberta, Ride
EXTD=
EXTT0=
EXTT1=
EXTT2=
EXTT3=
EXTT4=
EXTT5=
EXTT6=
EXTT7=
EXTT8=
EXTT9=
EXTT10=
EXTT11=
EXTT12=
EXTT13=
EXTT14=
EXTT15=
EXTT16=
EXTT17=
PLAYORDER=
